<svg width="202" height="201" viewBox="0 0 202 201" fill="none" xmlns="http://www.w3.org/2000/svg">
<path d="M37.1698 33.0392C125.75 -51.5008 245.23 39.4792 185.72 156.329C129.47 266.779 -85.3402 149.989 37.1698 33.0392Z" fill="#F1F7FF"/>
<path d="M90.8274 52.4228C117.389 43.628 145.413 51.4911 157.831 73.0122C172.43 98.2877 159.937 132.833 129.882 150.152C99.8271 167.472 63.7351 161.025 49.1176 135.749C37.3043 115.253 43.2482 88.729 61.8718 70.1707" stroke="#0070CC" stroke-width="4" stroke-linecap="square" stroke-linejoin="round"/>
<path d="M52.8256 67.8601L64.1916 68.3446L63.8097 79.72" stroke="#0070CC" stroke-width="4" stroke-linecap="square" stroke-linejoin="round"/>
<path d="M68.2163 57.0996L86.5138 61.9908" stroke="#0070CC" stroke-width="4" stroke-linejoin="round"/>
<path d="M79.8992 50.4197L74.8311 68.6706" stroke="#0070CC" stroke-width="4" stroke-linejoin="round"/>
<path d="M122.075 98.1854C126.608 98.1854 130.283 94.5106 130.283 89.9776C130.283 85.4445 126.608 81.7698 122.075 81.7698C117.542 81.7698 113.867 85.4445 113.867 89.9776C113.867 94.5106 117.542 98.1854 122.075 98.1854Z" stroke="#0070CC" stroke-width="4" stroke-linecap="square" stroke-linejoin="round"/>
<path d="M107.234 158.183V115.449C102.679 112.261 98.9118 108.077 96.2174 103.214C93.5231 98.3519 91.9728 92.9391 91.6845 87.3875C91.6423 86.7505 91.7316 86.1115 91.9468 85.5104C92.1619 84.9092 92.4984 84.3587 92.9352 83.8931C93.372 83.4274 93.8999 83.0565 94.4861 82.8035C95.0723 82.5504 95.7042 82.4205 96.3427 82.4219V82.4219C98.737 82.4219 100.461 84.2852 101.001 86.6143C102.464 93.3874 105.221 106.542 122.149 106.542H122.783C139.711 106.542 142.469 93.3874 143.922 86.6143C144.425 84.2759 146.158 82.4219 148.58 82.4219C149.219 82.4205 149.851 82.5504 150.437 82.8035C151.023 83.0565 151.551 83.4274 151.988 83.8931C152.424 84.3587 152.761 84.9092 152.976 85.5104C153.191 86.1115 153.28 86.7505 153.238 87.3875C152.934 92.949 151.364 98.3676 148.649 103.231C145.933 108.093 142.143 112.272 137.568 115.449V144.013" stroke="#0070CC" stroke-width="4" stroke-linecap="square" stroke-linejoin="round"/>
<path d="M84.6878 123.079C89.2208 123.079 92.8956 119.404 92.8956 114.871C92.8956 110.338 89.2208 106.663 84.6878 106.663C80.1547 106.663 76.48 110.338 76.48 114.871C76.48 119.404 80.1547 123.079 84.6878 123.079Z" stroke="#0070CC" stroke-width="4" stroke-linecap="square" stroke-linejoin="round"/>
<path d="M100.172 158.91V140.333" stroke="#0070CC" stroke-width="4" stroke-linecap="round" stroke-linejoin="round"/>
<path d="M69.8467 153.32V140.333C65.2921 137.148 61.5242 132.965 58.8297 128.104C56.1352 123.243 54.5852 117.832 54.2975 112.281C54.2554 111.644 54.3446 111.005 54.5598 110.404C54.7749 109.803 55.1114 109.252 55.5482 108.787C55.985 108.321 56.513 107.95 57.0991 107.697C57.6853 107.444 58.3173 107.314 58.9557 107.315V107.315C61.3501 107.315 63.0736 109.179 63.614 111.508C65.0767 118.281 67.8343 131.436 84.7624 131.436H85.3027C93.9111 131.436 98.8488 128.035 101.821 123.806" stroke="#0070CC" stroke-width="4" stroke-linecap="round" stroke-linejoin="round"/>
</svg>
